<svg width="1482" height="48" viewBox="0 0 1482 48" fill="none" xmlns="http://www.w3.org/2000/svg">
<path d="M14.9007 22.2496C15.7585 19.0488 19.0486 15.7587 22.2493 14.901L42.2043 9.55325C45.405 8.69549 47.3044 10.5949 46.4466 13.7956L41.0989 33.7506C40.2412 36.9513 36.9511 40.2414 33.7503 41.0992L13.7954 46.4469C10.5946 47.3047 8.69524 45.4053 9.55301 42.2045L14.9007 22.2496Z" fill="#9E77ED"/>
<path d="M6.90097 14.2496C7.75874 11.0488 11.0488 7.75874 14.2496 6.90097L34.2046 1.55325C37.4053 0.695481 39.3047 2.59485 38.4469 5.7956L33.0992 25.7506C32.2414 28.9513 28.9513 32.2414 25.7506 33.0992L5.79561 38.4469C2.59485 39.3047 0.695484 37.4053 1.55325 34.2045L6.90097 14.2496Z" fill="#6941C6"/>
<path d="M64.9885 31.7478H71.8526V34.435H61.6587V14.1348H64.9885V31.7478Z" fill="white"/>
<path d="M73.5274 26.3149C73.5274 24.6987 73.8584 23.2675 74.5205 22.0212C75.202 20.775 76.1172 19.8111 77.2661 19.1295C78.4345 18.4285 79.7197 18.078 81.1217 18.078C82.3874 18.078 83.4876 18.3311 84.4223 18.8374C85.3765 19.3242 86.1359 19.9376 86.7006 20.6776V18.3409H90.0597V34.435H86.7006V32.0399C86.1359 32.7993 85.3668 33.4322 84.3931 33.9385C83.4195 34.4448 82.3095 34.6979 81.0633 34.6979C79.6807 34.6979 78.415 34.3474 77.2661 33.6464C76.1172 32.9259 75.202 31.9328 74.5205 30.6671C73.8584 29.3819 73.5274 27.9312 73.5274 26.3149ZM86.7006 26.3733C86.7006 25.2634 86.467 24.2995 85.9996 23.4817C85.5517 22.6638 84.9578 22.0407 84.2179 21.6123C83.4779 21.1839 82.6795 20.9697 81.8227 20.9697C80.9659 20.9697 80.1675 21.1839 79.4276 21.6123C78.6876 22.0212 78.084 22.6346 77.6166 23.4524C77.1688 24.2508 76.9448 25.205 76.9448 26.3149C76.9448 27.4249 77.1688 28.3985 77.6166 29.2358C78.084 30.0732 78.6876 30.7158 79.4276 31.1636C80.187 31.592 80.9854 31.8062 81.8227 31.8062C82.6795 31.8062 83.4779 31.592 84.2179 31.1636C84.9578 30.7352 85.5517 30.1121 85.9996 29.2942C86.467 28.4569 86.7006 27.4833 86.7006 26.3733Z" fill="white"/>
<path d="M108.921 18.3409L99.0483 42.0002H95.6016L98.873 34.1722L92.5347 18.3409H96.2442L100.772 30.6087L105.474 18.3409H108.921Z" fill="white"/>
<path d="M126.184 25.9936C126.184 26.5973 126.145 27.1425 126.068 27.6293H113.771C113.868 28.9145 114.345 29.9466 115.202 30.7255C116.059 31.5044 117.11 31.8939 118.356 31.8939C120.148 31.8939 121.414 31.1442 122.154 29.6448H125.746C125.259 31.1247 124.373 32.3417 123.088 33.2959C121.822 34.2306 120.245 34.6979 118.356 34.6979C116.818 34.6979 115.435 34.3571 114.209 33.6756C113.001 32.9746 112.047 32.0009 111.346 30.7547C110.665 29.489 110.324 28.0285 110.324 26.3733C110.324 24.7182 110.655 23.2675 111.317 22.0212C111.999 20.7555 112.943 19.7818 114.15 19.1003C115.377 18.4188 116.779 18.078 118.356 18.078C119.875 18.078 121.229 18.409 122.416 19.0711C123.604 19.7332 124.529 20.6679 125.191 21.8752C125.853 23.063 126.184 24.4358 126.184 25.9936ZM122.709 24.9421C122.689 23.7153 122.251 22.732 121.394 21.992C120.537 21.252 119.476 20.8821 118.21 20.8821C117.061 20.8821 116.078 21.252 115.26 21.992C114.442 22.7125 113.956 23.6959 113.8 24.9421H122.709Z" fill="white"/>
<path d="M132.791 20.6776C133.278 19.8597 133.921 19.2269 134.719 18.779C135.537 18.3117 136.501 18.078 137.611 18.078V21.5246H136.764C135.459 21.5246 134.466 21.8557 133.784 22.5178C133.122 23.1798 132.791 24.3287 132.791 25.9644V34.435H129.461V18.3409H132.791V20.6776Z" fill="white"/>
<path d="M146.513 34.6979C145.247 34.6979 144.108 34.474 143.096 34.0261C142.103 33.5588 141.314 32.9356 140.73 32.1567C140.146 31.3584 139.834 30.4723 139.795 29.4987H143.242C143.3 30.1803 143.621 30.7547 144.206 31.222C144.809 31.6699 145.559 31.8939 146.455 31.8939C147.389 31.8939 148.11 31.7186 148.616 31.3681C149.142 30.9981 149.405 30.5308 149.405 29.9661C149.405 29.3624 149.113 28.9145 148.529 28.6224C147.964 28.3303 147.058 28.0091 145.812 27.6585C144.605 27.3275 143.621 27.0062 142.862 26.6946C142.103 26.3831 141.441 25.906 140.876 25.2634C140.331 24.6208 140.058 23.7737 140.058 22.7222C140.058 21.8654 140.311 21.0865 140.817 20.3855C141.324 19.665 142.044 19.1003 142.979 18.6914C143.933 18.2824 145.024 18.078 146.25 18.078C148.081 18.078 149.551 18.5453 150.661 19.48C151.79 20.3952 152.394 21.6512 152.472 23.248H149.142C149.084 22.5275 148.791 21.953 148.266 21.5246C147.74 21.0962 147.029 20.8821 146.133 20.8821C145.257 20.8821 144.585 21.0476 144.118 21.3786C143.651 21.7096 143.417 22.1478 143.417 22.693C143.417 23.1214 143.573 23.4817 143.884 23.7737C144.196 24.0658 144.576 24.2995 145.024 24.4748C145.471 24.6305 146.133 24.835 147.01 25.0881C148.178 25.3997 149.132 25.721 149.872 26.052C150.632 26.3636 151.284 26.831 151.829 27.4541C152.374 28.0772 152.657 28.9048 152.676 29.9368C152.676 30.8521 152.423 31.6699 151.917 32.3904C151.411 33.1109 150.69 33.6756 149.755 34.0845C148.84 34.4935 147.759 34.6979 146.513 34.6979Z" fill="white"/>
<path d="M347.563 31.7322C354.68 31.7322 360.449 25.9628 360.449 18.8458C360.449 18.0392 360.375 17.25 360.233 16.4844C359.468 16.3427 358.678 16.2686 357.872 16.2686C350.755 16.2686 344.985 22.038 344.985 29.1549C344.985 29.9615 345.059 30.7508 345.201 31.5163C345.967 31.6581 346.756 31.7322 347.563 31.7322Z" fill="#175CD3"/>
<path fill-rule="evenodd" clip-rule="evenodd" d="M345.201 31.5159C339.212 30.4067 334.676 25.1557 334.676 18.8454C334.676 11.7284 340.445 5.95898 347.562 5.95898C353.873 5.95898 359.124 10.4948 360.233 16.484C359.467 16.3422 358.678 16.2681 357.871 16.2681C350.755 16.2681 344.985 22.0375 344.985 29.1545C344.985 29.961 345.059 30.7503 345.201 31.5159Z" fill="#1570EF"/>
<path fill-rule="evenodd" clip-rule="evenodd" d="M347.563 31.7312C354.68 31.7312 360.449 25.9617 360.449 18.8448C360.449 18.0382 360.375 17.2489 360.233 16.4834C366.222 17.5926 370.758 22.8435 370.758 29.1539C370.758 36.2708 364.989 42.0403 357.872 42.0403C351.561 42.0403 346.31 37.5045 345.201 31.5153C345.967 31.6571 346.756 31.7312 347.563 31.7312Z" fill="#2E90FA"/>
<path d="M395.546 28.0216C395.087 29.5064 394.284 30.6162 393.136 31.3509C391.987 32.0704 390.648 32.4301 389.117 32.4301C387.617 32.4301 386.316 32.1163 385.214 31.4887C384.127 30.8611 383.285 29.9656 382.688 28.8022C382.107 27.6389 381.816 26.2459 381.816 24.6233C381.816 23.0007 382.114 21.6077 382.711 20.4444C383.308 19.281 384.15 18.3855 385.237 17.7579C386.324 17.1303 387.602 16.8165 389.071 16.8165C390.617 16.8165 391.942 17.1456 393.044 17.8038C394.161 18.4467 394.926 19.4264 395.34 20.7429L392.47 21.9598C392.209 21.0414 391.811 20.3908 391.276 20.0081C390.74 19.6101 390.051 19.4111 389.209 19.4111C387.954 19.4111 386.951 19.8627 386.201 20.7658C385.466 21.6537 385.099 22.9395 385.099 24.6233C385.099 26.2918 385.451 27.5776 386.155 28.4808C386.859 29.3839 387.877 29.8355 389.209 29.8355C390.036 29.8355 390.748 29.6135 391.345 29.1696C391.957 28.7257 392.385 28.0522 392.63 27.149L395.546 28.0216Z" fill="white"/>
<path d="M399.51 19.0667C398.209 19.0667 397.558 18.508 397.558 17.3905C397.558 16.2578 398.209 15.6914 399.51 15.6914C400.811 15.6914 401.462 16.2578 401.462 17.3905C401.462 18.508 400.811 19.0667 399.51 19.0667ZM401.071 20.7199V32.2005H397.926V20.7199H401.071Z" fill="white"/>
<path d="M404.406 32.2005V20.7199H407.138L407.345 22.9701C407.636 22.1894 408.072 21.5848 408.654 21.1562C409.251 20.7122 410.001 20.4903 410.904 20.4903C411.44 20.4903 411.853 20.5745 412.144 20.7429L411.776 23.3834C411.623 23.3375 411.432 23.2992 411.202 23.2686C410.988 23.2227 410.705 23.1997 410.353 23.1997C409.878 23.1997 409.427 23.3145 408.998 23.5441C408.585 23.7584 408.24 24.0952 407.965 24.5544C407.689 24.9983 407.552 25.5647 407.552 26.2535V32.2005H404.406Z" fill="white"/>
<path d="M419.081 20.4903C420.611 20.4903 421.798 20.8194 422.64 21.4776C423.497 22.1358 424.063 22.9318 424.339 23.8656L421.4 24.9218C421.093 23.5288 420.336 22.8323 419.126 22.8323C418.254 22.8323 417.573 23.1385 417.083 23.7508C416.608 24.3631 416.371 25.2739 416.371 26.4832C416.371 27.7078 416.616 28.6185 417.106 29.2155C417.611 29.7972 418.292 30.0881 419.149 30.0881C420.481 30.0881 421.277 29.4069 421.537 28.0445L424.385 28.963C424.124 29.9886 423.543 30.8228 422.64 31.4657C421.752 32.1086 420.596 32.4301 419.172 32.4301C417.978 32.4301 416.93 32.1928 416.027 31.7183C415.139 31.2438 414.45 30.5626 413.96 29.6748C413.47 28.7869 413.225 27.7154 413.225 26.4602C413.225 25.205 413.47 24.1335 413.96 23.2456C414.465 22.3578 415.154 21.6766 416.027 21.2021C416.915 20.7276 417.933 20.4903 419.081 20.4903Z" fill="white"/>
<path d="M432.064 20.4903C433.212 20.4903 434.23 20.7276 435.118 21.2021C436.006 21.6766 436.695 22.3578 437.184 23.2456C437.69 24.1335 437.942 25.205 437.942 26.4602C437.942 27.7154 437.69 28.7869 437.184 29.6748C436.695 30.5626 436.006 31.2438 435.118 31.7183C434.23 32.1928 433.212 32.4301 432.064 32.4301C430.901 32.4301 429.875 32.1928 428.987 31.7183C428.115 31.2438 427.426 30.5626 426.921 29.6748C426.431 28.7869 426.186 27.7154 426.186 26.4602C426.186 25.205 426.431 24.1335 426.921 23.2456C427.426 22.3578 428.115 21.6766 428.987 21.2021C429.875 20.7276 430.901 20.4903 432.064 20.4903ZM432.064 22.8323C431.207 22.8323 430.533 23.1385 430.043 23.7508C429.569 24.3478 429.332 25.2509 429.332 26.4602C429.332 27.6695 429.569 28.5803 430.043 29.1926C430.533 29.7896 431.207 30.0881 432.064 30.0881C432.906 30.0881 433.564 29.7896 434.039 29.1926C434.529 28.5803 434.773 27.6695 434.773 26.4602C434.773 25.2509 434.529 24.3478 434.039 23.7508C433.564 23.1385 432.906 22.8323 432.064 22.8323Z" fill="white"/>
<path d="M445.809 20.4903C446.957 20.4903 447.975 20.7276 448.863 21.2021C449.751 21.6766 450.44 22.3578 450.93 23.2456C451.435 24.1335 451.687 25.205 451.687 26.4602C451.687 27.7154 451.435 28.7869 450.93 29.6748C450.44 30.5626 449.751 31.2438 448.863 31.7183C447.975 32.1928 446.957 32.4301 445.809 32.4301C444.646 32.4301 443.62 32.1928 442.733 31.7183C441.86 31.2438 441.171 30.5626 440.666 29.6748C440.176 28.7869 439.931 27.7154 439.931 26.4602C439.931 25.205 440.176 24.1335 440.666 23.2456C441.171 22.3578 441.86 21.6766 442.733 21.2021C443.62 20.7276 444.646 20.4903 445.809 20.4903ZM445.809 22.8323C444.952 22.8323 444.279 23.1385 443.789 23.7508C443.314 24.3478 443.077 25.2509 443.077 26.4602C443.077 27.6695 443.314 28.5803 443.789 29.1926C444.279 29.7896 444.952 30.0881 445.809 30.0881C446.651 30.0881 447.309 29.7896 447.784 29.1926C448.274 28.5803 448.519 27.6695 448.519 26.4602C448.519 25.2509 448.274 24.3478 447.784 23.7508C447.309 23.1385 446.651 22.8323 445.809 22.8323Z" fill="white"/>
<path d="M457.419 15.6914V28.6645C457.419 29.2002 457.511 29.5753 457.695 29.7896C457.878 30.0039 458.185 30.111 458.613 30.111C458.873 30.111 459.088 30.0957 459.256 30.0651C459.425 30.0345 459.639 29.9733 459.899 29.8814L459.624 31.9479C459.363 32.101 459.034 32.2158 458.636 32.2923C458.254 32.3842 457.871 32.4301 457.488 32.4301C456.371 32.4301 455.552 32.1622 455.031 31.6265C454.526 31.0754 454.274 30.2029 454.274 29.0089V15.6914H457.419Z" fill="white"/>
<path d="M466.979 32.4301C465.173 32.4301 463.726 31.9096 462.639 30.8687C461.552 29.8125 461.009 28.343 461.009 26.4602C461.009 25.205 461.254 24.1335 461.744 23.2456C462.233 22.3578 462.915 21.6766 463.787 21.2021C464.675 20.7276 465.685 20.4903 466.818 20.4903C467.981 20.4903 468.969 20.7276 469.78 21.2021C470.591 21.6613 471.211 22.2966 471.64 23.1079C472.069 23.9039 472.283 24.8146 472.283 25.8402C472.283 26.1464 472.275 26.4372 472.26 26.7128C472.245 26.9883 472.222 27.2332 472.191 27.4475H464.086C464.208 28.3354 464.514 29.0012 465.004 29.4452C465.509 29.8738 466.16 30.0881 466.956 30.0881C467.629 30.0881 468.173 29.9579 468.586 29.6977C468.999 29.4375 469.321 29.0778 469.55 28.6185L472.053 29.5829C471.686 30.4861 471.043 31.1902 470.124 31.6953C469.206 32.1852 468.157 32.4301 466.979 32.4301ZM466.795 22.8094C465.31 22.8094 464.415 23.6283 464.109 25.2662H469.275C469.183 24.4702 468.923 23.8656 468.494 23.4523C468.081 23.0237 467.515 22.8094 466.795 22.8094Z" fill="white"/>
<path d="M479.541 32.4301C478.378 32.4301 477.314 32.2235 476.349 31.8102C475.4 31.3969 474.627 30.8152 474.03 30.0651L475.844 28.2282C476.212 28.7793 476.701 29.2308 477.314 29.5829C477.926 29.935 478.653 30.111 479.495 30.111C480.092 30.111 480.566 30.0268 480.919 29.8585C481.286 29.6748 481.47 29.3916 481.47 29.0089C481.47 28.764 481.385 28.5573 481.217 28.3889C481.049 28.2052 480.712 28.0598 480.207 27.9527L478.186 27.5394C476.854 27.2638 475.905 26.8505 475.339 26.2995C474.788 25.7331 474.512 25.006 474.512 24.1182C474.512 23.4906 474.696 22.9012 475.063 22.3501C475.446 21.7991 476.013 21.3552 476.763 21.0184C477.513 20.6663 478.446 20.4903 479.564 20.4903C481.891 20.4903 483.559 21.2021 484.569 22.6257L482.687 24.4626C482.35 23.9268 481.906 23.5212 481.355 23.2456C480.819 22.9548 480.253 22.8094 479.656 22.8094C478.309 22.8094 477.635 23.1844 477.635 23.9345C477.635 24.1794 477.742 24.3937 477.957 24.5774C478.171 24.7458 478.561 24.8912 479.128 25.0136L481.47 25.4958C482.602 25.7254 483.414 26.1158 483.904 26.6668C484.393 27.2026 484.638 27.8532 484.638 28.6185C484.638 29.7207 484.194 30.6315 483.307 31.3509C482.434 32.0704 481.179 32.4301 479.541 32.4301Z" fill="white"/>
<path fill-rule="evenodd" clip-rule="evenodd" d="M684.404 33.1245C689.964 33.1245 694.472 28.6172 694.472 23.0571C694.472 17.497 689.964 12.9896 684.404 12.9896C678.844 12.9896 674.337 17.497 674.337 23.0571C674.337 28.6172 678.844 33.1245 684.404 33.1245ZM684.404 40.8231C694.216 40.8231 702.17 32.869 702.17 23.0571C702.17 13.2452 694.216 5.29102 684.404 5.29102C674.592 5.29102 666.638 13.2452 666.638 23.0571C666.638 32.869 674.592 40.8231 684.404 40.8231Z" fill="#6938EF"/>
<path d="M684.607 23.4457C686.457 21.5955 689.457 21.5955 691.307 23.4457L700.52 32.6582C702.37 34.5084 702.37 37.5081 700.52 39.3582C698.67 41.2084 695.67 41.2084 693.82 39.3582L684.607 30.1457C682.757 28.2956 682.757 25.2959 684.607 23.4457Z" fill="#F670C7"/>
<path d="M687.194 32.7317L693.045 38.5827C695.851 37.0175 698.19 34.7136 699.796 31.9339L693.993 26.1309C692.974 29.3121 690.415 31.8045 687.194 32.7317Z" fill="#6519BA"/>
<path d="M730.854 32.8279C730.342 33.461 729.716 33.9434 728.978 34.275C728.254 34.6067 727.455 34.7725 726.581 34.7725C725.405 34.7725 724.342 34.5162 723.393 34.0037C722.443 33.5062 721.358 32.6169 720.137 31.3356C718.705 31.1547 717.423 30.6949 716.293 29.9563C715.177 29.2176 714.303 28.2679 713.67 27.1072C713.052 25.9314 712.743 24.6351 712.743 23.2181C712.743 21.6654 713.112 20.2711 713.851 19.035C714.604 17.7838 715.637 16.804 716.948 16.0955C718.275 15.387 719.76 15.0328 721.403 15.0328C723.046 15.0328 724.523 15.387 725.835 16.0955C727.146 16.804 728.179 17.7838 728.932 19.035C729.686 20.2711 730.063 21.6654 730.063 23.2181C730.063 25.0571 729.543 26.6701 728.503 28.0569C727.478 29.4437 726.114 30.4085 724.41 30.9512C724.787 31.3431 725.149 31.622 725.495 31.7878C725.857 31.9687 726.242 32.0591 726.649 32.0591C727.628 32.0591 728.488 31.6672 729.226 30.8833L730.854 32.8279ZM716.451 23.2181C716.451 24.1979 716.662 25.0722 717.084 25.841C717.521 26.6098 718.117 27.2127 718.87 27.6499C719.624 28.072 720.468 28.283 721.403 28.283C722.337 28.283 723.182 28.072 723.935 27.6499C724.689 27.2127 725.277 26.6098 725.699 25.841C726.136 25.0722 726.355 24.1979 726.355 23.2181C726.355 22.2382 726.136 21.3639 725.699 20.5952C725.277 19.8264 724.689 19.2309 723.935 18.8089C723.182 18.3717 722.337 18.1531 721.403 18.1531C720.468 18.1531 719.624 18.3717 718.87 18.8089C718.117 19.2309 717.521 19.8264 717.084 20.5952C716.662 21.3639 716.451 22.2382 716.451 23.2181Z" fill="white"/>
<path d="M744.823 18.9671V31.132H741.476V29.6849C741.009 30.2125 740.451 30.6195 739.803 30.9059C739.155 31.1773 738.454 31.3129 737.7 31.3129C736.102 31.3129 734.836 30.8532 733.901 29.9336C732.967 29.0141 732.499 27.6499 732.499 25.841V18.9671H736.027V25.3209C736.027 27.2806 736.848 28.2604 738.491 28.2604C739.336 28.2604 740.014 27.9891 740.526 27.4464C741.039 26.8887 741.295 26.0671 741.295 24.9818V18.9671H744.823Z" fill="white"/>
<path d="M753.879 31.3129C752.598 31.3129 751.444 31.0491 750.419 30.5215C749.409 29.9789 748.618 29.2327 748.045 28.283C747.472 27.3333 747.186 26.2555 747.186 25.0496C747.186 23.8437 747.472 22.7658 748.045 21.8162C748.618 20.8665 749.409 20.1279 750.419 19.6003C751.444 19.0576 752.598 18.7863 753.879 18.7863C755.16 18.7863 756.306 19.0576 757.316 19.6003C758.326 20.1279 759.117 20.8665 759.69 21.8162C760.263 22.7658 760.549 23.8437 760.549 25.0496C760.549 26.2555 760.263 27.3333 759.69 28.283C759.117 29.2327 758.326 29.9789 757.316 30.5215C756.306 31.0491 755.16 31.3129 753.879 31.3129ZM753.879 28.4187C754.783 28.4187 755.522 28.1172 756.095 27.5142C756.683 26.8962 756.977 26.0746 756.977 25.0496C756.977 24.0245 756.683 23.2105 756.095 22.6076C755.522 21.9895 754.783 21.6805 753.879 21.6805C752.974 21.6805 752.228 21.9895 751.64 22.6076C751.052 23.2105 750.759 24.0245 750.759 25.0496C750.759 26.0746 751.052 26.8962 751.64 27.5142C752.228 28.1172 752.974 28.4187 753.879 28.4187Z" fill="white"/>
<path d="M770.753 30.5442C770.406 30.8004 769.977 30.9964 769.464 31.132C768.967 31.2526 768.439 31.3129 767.882 31.3129C766.434 31.3129 765.311 30.9436 764.512 30.205C763.729 29.4663 763.337 28.381 763.337 26.9489V21.9518H761.46V19.2385H763.337V16.2764H766.864V19.2385H769.894V21.9518H766.864V26.9037C766.864 27.4163 766.992 27.8157 767.248 28.1021C767.52 28.3735 767.897 28.5091 768.379 28.5091C768.937 28.5091 769.412 28.3584 769.803 28.0569L770.753 30.5442Z" fill="white"/>
<path d="M772.733 18.9671H776.261V31.132H772.733V18.9671ZM774.497 17.2713C773.849 17.2713 773.321 17.0829 772.914 16.706C772.507 16.3292 772.304 15.8618 772.304 15.3041C772.304 14.7464 772.507 14.2791 772.914 13.9022C773.321 13.5253 773.849 13.3369 774.497 13.3369C775.145 13.3369 775.673 13.5178 776.08 13.8796C776.487 14.2414 776.69 14.6936 776.69 15.2363C776.69 15.8242 776.487 16.3141 776.08 16.706C775.673 17.0829 775.145 17.2713 774.497 17.2713Z" fill="white"/>
<path d="M791.45 25.0948C791.45 25.14 791.428 25.4566 791.383 26.0445H782.18C782.346 26.7982 782.738 27.3936 783.356 27.8308C783.974 28.2679 784.742 28.4865 785.662 28.4865C786.295 28.4865 786.853 28.3961 787.335 28.2152C787.833 28.0192 788.292 27.7177 788.715 27.3107L790.591 29.3458C789.446 30.6572 787.772 31.3129 785.572 31.3129C784.2 31.3129 782.986 31.0491 781.931 30.5215C780.876 29.9789 780.062 29.2327 779.489 28.283C778.916 27.3333 778.63 26.2555 778.63 25.0496C778.63 23.8587 778.909 22.7885 779.466 21.8388C780.039 20.874 780.816 20.1279 781.795 19.6003C782.79 19.0576 783.898 18.7863 785.119 18.7863C786.31 18.7863 787.388 19.0425 788.353 19.555C789.317 20.0676 790.071 20.8062 790.614 21.7709C791.172 22.7206 791.45 23.8286 791.45 25.0948ZM785.142 21.4544C784.343 21.4544 783.672 21.6805 783.13 22.1327C782.587 22.585 782.255 23.203 782.135 23.9869H788.127C788.006 23.2181 787.674 22.6076 787.132 22.1553C786.589 21.688 785.926 21.4544 785.142 21.4544Z" fill="white"/>
<path d="M801.193 18.7863C802.7 18.7863 803.914 19.2385 804.833 20.1429C805.768 21.0474 806.235 22.389 806.235 24.1678V31.132H802.708V24.7104C802.708 23.7457 802.497 23.0296 802.075 22.5623C801.653 22.08 801.042 21.8388 800.243 21.8388C799.354 21.8388 798.645 22.1177 798.118 22.6754C797.59 23.2181 797.326 24.0321 797.326 25.1174V31.132H793.799V18.9671H797.168V20.3917C797.635 19.8791 798.216 19.4872 798.909 19.2159C799.602 18.9295 800.364 18.7863 801.193 18.7863Z" fill="white"/>
<path d="M817.279 30.5442C816.932 30.8004 816.502 30.9964 815.99 31.132C815.492 31.2526 814.965 31.3129 814.407 31.3129C812.96 31.3129 811.837 30.9436 811.038 30.205C810.254 29.4663 809.862 28.381 809.862 26.9489V21.9518H807.985V19.2385H809.862V16.2764H813.39V19.2385H816.419V21.9518H813.39V26.9037C813.39 27.4163 813.518 27.8157 813.774 28.1021C814.045 28.3735 814.422 28.5091 814.904 28.5091C815.462 28.5091 815.937 28.3584 816.329 28.0569L817.279 30.5442Z" fill="white"/>
<path d="M1025.62 24.001C1022.86 27.089 1018.84 29.0323 1014.37 29.0323C1009.9 29.0323 1005.89 27.089 1003.12 24.001C1005.89 20.9131 1009.9 18.9697 1014.37 18.9697C1018.84 18.9697 1022.86 20.9131 1025.62 24.001Z" fill="white"/>
<path fill-rule="evenodd" clip-rule="evenodd" d="M999.279 34.0636C999.279 25.7275 1006.04 18.9697 1014.37 18.9697C1009.9 18.9697 1005.89 20.9131 1003.12 24.001C1005.89 27.089 1009.9 29.0323 1014.37 29.0323C1018.84 29.0323 1022.86 27.089 1025.62 24.001C1028.01 26.6714 1029.47 30.1978 1029.47 34.0636V39.7658C1029.47 40.5068 1028.87 41.1075 1028.12 41.1075H1000.62C999.879 41.1075 999.279 40.5068 999.279 39.7658V34.0636ZM1025.62 24.001C1025.62 24.001 1025.62 24.0011 1025.62 24.001V24.001Z" fill="#7CD4FD"/>
<path fill-rule="evenodd" clip-rule="evenodd" d="M1008.71 27.9336C1006.56 27.0609 1004.65 25.7049 1003.12 24C1005.89 20.912 1009.9 18.9687 1014.37 18.9687C1018.84 18.9687 1022.86 20.912 1025.62 24C1025.62 24 1025.62 24 1025.62 24C1028.01 21.3296 1029.47 17.8032 1029.47 13.9374V8.23524C1029.47 7.49425 1028.87 6.89356 1028.12 6.89356L1000.62 6.89355C999.88 6.89355 999.279 7.49425 999.279 8.23524L999.279 13.9374C999.279 20.2714 1003.18 25.6941 1008.71 27.9336Z" fill="#0BA5EC"/>
<path d="M1053.04 16.5804V31.7772H1049.99V25.3109H1043.48V31.7772H1040.44V16.5804H1043.48V22.8289H1049.99V16.5804H1053.04Z" fill="white"/>
<path d="M1061.4 31.9731C1060.24 31.9731 1059.19 31.7191 1058.26 31.2111C1057.33 30.6886 1056.6 29.9556 1056.06 29.0121C1055.54 28.0687 1055.28 26.9801 1055.28 25.7464C1055.28 24.5126 1055.55 23.424 1056.09 22.4806C1056.64 21.5371 1057.39 20.8114 1058.33 20.3034C1059.27 19.7809 1060.32 19.5196 1061.49 19.5196C1062.65 19.5196 1063.7 19.7809 1064.64 20.3034C1065.59 20.8114 1066.33 21.5371 1066.86 22.4806C1067.41 23.424 1067.69 24.5126 1067.69 25.7464C1067.69 26.9801 1067.41 28.0687 1066.84 29.0121C1066.29 29.9556 1065.54 30.6886 1064.58 31.2111C1063.63 31.7191 1062.57 31.9731 1061.4 31.9731ZM1061.4 29.3169C1061.95 29.3169 1062.47 29.1863 1062.94 28.9251C1063.44 28.6493 1063.83 28.2429 1064.12 27.7058C1064.41 27.1688 1064.56 26.5156 1064.56 25.7464C1064.56 24.5997 1064.25 23.7216 1063.64 23.112C1063.05 22.4879 1062.31 22.1758 1061.44 22.1758C1060.57 22.1758 1059.84 22.4879 1059.24 23.112C1058.66 23.7216 1058.37 24.5997 1058.37 25.7464C1058.37 26.893 1058.66 27.7784 1059.22 28.4025C1059.8 29.0121 1060.53 29.3169 1061.4 29.3169Z" fill="white"/>
<path d="M1081.31 19.7156V31.7772H1078.24V30.2531C1077.85 30.7757 1077.34 31.1893 1076.7 31.4941C1076.07 31.7844 1075.39 31.9296 1074.65 31.9296C1073.71 31.9296 1072.87 31.7336 1072.15 31.3417C1071.42 30.9353 1070.85 30.3475 1070.43 29.5782C1070.02 28.7944 1069.82 27.8655 1069.82 26.7914V19.7156H1072.87V26.356C1072.87 27.3139 1073.11 28.0542 1073.58 28.5767C1074.06 29.0847 1074.72 29.3387 1075.54 29.3387C1076.39 29.3387 1077.05 29.0847 1077.52 28.5767C1078 28.0542 1078.24 27.3139 1078.24 26.356V19.7156H1081.31Z" fill="white"/>
<path d="M1087.37 21.5879C1087.76 20.9493 1088.27 20.4486 1088.89 20.0857C1089.53 19.7228 1090.26 19.5414 1091.07 19.5414V22.7419H1090.26C1089.31 22.7419 1088.58 22.9668 1088.09 23.4168C1087.61 23.8667 1087.37 24.6505 1087.37 25.7681V31.7772H1084.32V19.7156H1087.37V21.5879Z" fill="white"/>
<path d="M1097.85 19.5196C1098.75 19.5196 1099.54 19.7011 1100.22 20.0639C1100.9 20.4123 1101.44 20.8695 1101.83 21.4355V19.7156H1104.9V31.8642C1104.9 32.9819 1104.68 33.9761 1104.23 34.847C1103.78 35.7324 1103.1 36.4291 1102.2 36.9371C1101.3 37.4596 1100.21 37.7209 1098.94 37.7209C1097.22 37.7209 1095.82 37.3217 1094.71 36.5234C1093.62 35.7251 1093.01 34.6365 1092.86 33.2576H1095.89C1096.05 33.8092 1096.39 34.2446 1096.91 34.564C1097.45 34.8978 1098.09 35.0647 1098.85 35.0647C1099.73 35.0647 1100.45 34.7962 1101 34.2591C1101.56 33.7366 1101.83 32.9383 1101.83 31.8642V29.9919C1101.44 30.5579 1100.9 31.0297 1100.2 31.407C1099.52 31.7844 1098.73 31.9731 1097.85 31.9731C1096.83 31.9731 1095.9 31.7118 1095.06 31.1893C1094.22 30.6668 1093.55 29.9338 1093.06 28.9904C1092.58 28.0324 1092.34 26.9366 1092.34 25.7028C1092.34 24.4836 1092.58 23.4023 1093.06 22.4588C1093.55 21.5154 1094.21 20.7896 1095.04 20.2816C1095.88 19.7736 1096.82 19.5196 1097.85 19.5196ZM1101.83 25.7464C1101.83 25.0061 1101.69 24.3747 1101.4 23.8522C1101.11 23.3152 1100.71 22.9088 1100.22 22.633C1099.73 22.3427 1099.2 22.1976 1098.63 22.1976C1098.07 22.1976 1097.54 22.3354 1097.06 22.6112C1096.58 22.887 1096.19 23.2934 1095.89 23.8304C1095.6 24.353 1095.45 24.9771 1095.45 25.7028C1095.45 26.4286 1095.6 27.0672 1095.89 27.6187C1096.19 28.1558 1096.58 28.5694 1097.06 28.8597C1097.56 29.15 1098.08 29.2952 1098.63 29.2952C1099.2 29.2952 1099.73 29.1573 1100.22 28.8815C1100.71 28.5912 1101.11 28.1848 1101.4 27.6623C1101.69 27.1252 1101.83 26.4866 1101.83 25.7464Z" fill="white"/>
<path d="M1110.93 15.666V31.7772H1107.88V15.666H1110.93Z" fill="white"/>
<path d="M1113.15 25.7028C1113.15 24.4836 1113.39 23.4023 1113.87 22.4588C1114.37 21.5154 1115.03 20.7896 1115.85 20.2816C1116.7 19.7736 1117.63 19.5196 1118.66 19.5196C1119.56 19.5196 1120.35 19.7011 1121.01 20.0639C1121.7 20.4268 1122.24 20.884 1122.65 21.4355V19.7156H1125.72V31.7772H1122.65V30.0136C1122.25 30.5797 1121.71 31.0514 1121.01 31.4288C1120.33 31.7917 1119.54 31.9731 1118.64 31.9731C1117.62 31.9731 1116.7 31.7118 1115.85 31.1893C1115.03 30.6668 1114.37 29.9338 1113.87 28.9904C1113.39 28.0324 1113.15 26.9366 1113.15 25.7028ZM1122.65 25.7464C1122.65 25.0061 1122.5 24.3747 1122.21 23.8522C1121.92 23.3152 1121.53 22.9088 1121.04 22.633C1120.54 22.3427 1120.01 22.1976 1119.45 22.1976C1118.88 22.1976 1118.36 22.3354 1117.88 22.6112C1117.4 22.887 1117.01 23.2934 1116.7 23.8304C1116.41 24.353 1116.27 24.9771 1116.27 25.7028C1116.27 26.4286 1116.41 27.0672 1116.7 27.6187C1117.01 28.1558 1117.4 28.5694 1117.88 28.8597C1118.37 29.15 1118.89 29.2952 1119.45 29.2952C1120.01 29.2952 1120.54 29.1573 1121.04 28.8815C1121.53 28.5912 1121.92 28.1848 1122.21 27.6623C1122.5 27.1252 1122.65 26.4866 1122.65 25.7464Z" fill="white"/>
<path d="M1133.31 31.9731C1132.32 31.9731 1131.44 31.7989 1130.65 31.4506C1129.87 31.0877 1129.24 30.6015 1128.78 29.9919C1128.33 29.3823 1128.08 28.7073 1128.04 27.9671H1131.11C1131.17 28.4316 1131.39 28.8162 1131.78 29.121C1132.19 29.4258 1132.69 29.5782 1133.29 29.5782C1133.87 29.5782 1134.32 29.4621 1134.64 29.2299C1134.97 28.9976 1135.14 28.7001 1135.14 28.3372C1135.14 27.9453 1134.93 27.655 1134.53 27.4663C1134.14 27.2631 1133.5 27.0454 1132.63 26.8132C1131.73 26.5955 1130.99 26.3705 1130.41 26.1383C1129.85 25.906 1129.35 25.5504 1128.93 25.0714C1128.53 24.5925 1128.32 23.9466 1128.32 23.1337C1128.32 22.4661 1128.51 21.8565 1128.89 21.3049C1129.28 20.7534 1129.83 20.3179 1130.54 19.9986C1131.27 19.6793 1132.12 19.5196 1133.09 19.5196C1134.53 19.5196 1135.67 19.8825 1136.53 20.6082C1137.39 21.3194 1137.86 22.2846 1137.95 23.5039H1135.03C1134.99 23.0249 1134.78 22.6475 1134.42 22.3717C1134.07 22.0814 1133.6 21.9363 1133 21.9363C1132.45 21.9363 1132.02 22.0379 1131.72 22.2411C1131.43 22.4443 1131.28 22.7273 1131.28 23.0902C1131.28 23.4966 1131.49 23.8087 1131.89 24.0264C1132.3 24.2296 1132.93 24.4401 1133.79 24.6578C1134.66 24.8755 1135.38 25.1005 1135.94 25.3327C1136.51 25.5649 1137 25.9278 1137.4 26.4213C1137.82 26.9003 1138.04 27.5389 1138.06 28.3372C1138.06 29.0339 1137.86 29.658 1137.47 30.2096C1137.09 30.7611 1136.54 31.1966 1135.81 31.5159C1135.1 31.8207 1134.27 31.9731 1133.31 31.9731Z" fill="white"/>
<path d="M1145.17 31.9731C1144.19 31.9731 1143.3 31.7989 1142.52 31.4506C1141.73 31.0877 1141.11 30.6015 1140.64 29.9919C1140.19 29.3823 1139.95 28.7073 1139.9 27.9671H1142.97C1143.03 28.4316 1143.26 28.8162 1143.65 29.121C1144.06 29.4258 1144.56 29.5782 1145.15 29.5782C1145.73 29.5782 1146.18 29.4621 1146.5 29.2299C1146.83 28.9976 1147 28.7001 1147 28.3372C1147 27.9453 1146.8 27.655 1146.39 27.4663C1146 27.2631 1145.37 27.0454 1144.5 26.8132C1143.6 26.5955 1142.86 26.3705 1142.28 26.1383C1141.71 25.906 1141.22 25.5504 1140.8 25.0714C1140.39 24.5925 1140.19 23.9466 1140.19 23.1337C1140.19 22.4661 1140.38 21.8565 1140.75 21.3049C1141.15 20.7534 1141.7 20.3179 1142.41 19.9986C1143.13 19.6793 1143.98 19.5196 1144.96 19.5196C1146.39 19.5196 1147.54 19.8825 1148.4 20.6082C1149.25 21.3194 1149.72 22.2846 1149.81 23.5039H1146.89C1146.85 23.0249 1146.65 22.6475 1146.28 22.3717C1145.93 22.0814 1145.46 21.9363 1144.87 21.9363C1144.32 21.9363 1143.89 22.0379 1143.58 22.2411C1143.29 22.4443 1143.15 22.7273 1143.15 23.0902C1143.15 23.4966 1143.35 23.8087 1143.76 24.0264C1144.16 24.2296 1144.8 24.4401 1145.65 24.6578C1146.52 24.8755 1147.24 25.1005 1147.81 25.3327C1148.37 25.5649 1148.86 25.9278 1149.27 26.4213C1149.69 26.9003 1149.9 27.5389 1149.92 28.3372C1149.92 29.0339 1149.72 29.658 1149.33 30.2096C1148.95 30.7611 1148.4 31.1966 1147.68 31.5159C1146.97 31.8207 1146.13 31.9731 1145.17 31.9731Z" fill="white"/>
<path d="M1352.59 3.32812C1341.17 3.32812 1331.92 12.5832 1331.92 23.9998C1331.92 35.4165 1341.17 44.6716 1352.59 44.6716C1362.83 44.6716 1371.34 37.2219 1372.98 27.4451H1372.83C1371.3 33.389 1365.9 37.781 1359.48 37.781C1351.87 37.781 1345.7 31.611 1345.7 23.9998C1345.7 16.3887 1351.87 10.2187 1359.48 10.2187C1365.9 10.2187 1371.3 14.6106 1372.83 20.5546H1372.98C1371.34 10.7778 1362.83 3.32812 1352.59 3.32812Z" fill="#A4BCFD"/>
<path d="M1331.92 23.9998C1331.92 12.5832 1341.17 3.32812 1352.59 3.32812C1362.83 3.32812 1371.34 10.7778 1372.98 20.5546H1359.05C1357.52 14.6107 1352.12 10.2187 1345.7 10.2187C1338.09 10.2187 1331.92 16.3887 1331.92 23.9998Z" fill="#3538CD"/>
<path d="M1331.92 24.0002C1331.92 35.4168 1341.17 44.6719 1352.59 44.6719C1362.83 44.6719 1371.34 37.2222 1372.98 27.4454H1359.05C1357.52 33.3893 1352.12 37.7813 1345.7 37.7813C1338.09 37.7813 1331.92 31.6113 1331.92 24.0002Z" fill="#3538CD"/>
<path d="M1402.8 20.7185C1402.21 16.4675 1398.94 14.001 1394.7 14.001C1389.7 14.001 1385.94 17.6447 1385.94 23.8297C1385.94 30.0053 1389.66 33.6583 1394.7 33.6583C1399.25 33.6583 1402.27 30.7153 1402.8 27.0623L1399.31 27.0436C1398.87 29.2859 1397.04 30.5472 1394.75 30.5472C1391.65 30.5472 1389.42 28.2208 1389.42 23.8297C1389.42 19.5133 1391.63 17.1121 1394.76 17.1121C1397.09 17.1121 1398.91 18.4295 1399.31 20.7185H1402.8Z" fill="white"/>
<path d="M1409.96 33.6864C1412.21 33.6864 1413.55 32.6306 1414.17 31.4254H1414.28V33.3967H1417.53V23.7923C1417.53 19.9991 1414.44 18.8593 1411.7 18.8593C1408.69 18.8593 1406.37 20.2046 1405.62 22.8206L1408.78 23.2691C1409.12 22.2881 1410.07 21.4472 1411.72 21.4472C1413.29 21.4472 1414.15 22.2507 1414.15 23.6615V23.7175C1414.15 24.6892 1413.13 24.7359 1410.6 25.0069C1407.82 25.3058 1405.16 26.1373 1405.16 29.37C1405.16 32.1915 1407.22 33.6864 1409.96 33.6864ZM1410.84 31.2012C1409.43 31.2012 1408.42 30.5565 1408.42 29.3139C1408.42 28.0152 1409.55 27.4734 1411.06 27.2585C1411.95 27.137 1413.72 26.9128 1414.16 26.5578V28.2488C1414.16 29.8464 1412.87 31.2012 1410.84 31.2012Z" fill="white"/>
<path d="M1428.1 19.0461H1425.27V15.6079H1421.89V19.0461H1419.85V21.6621H1421.89V29.6409C1421.87 32.341 1423.83 33.6677 1426.37 33.5929C1427.34 33.5649 1428 33.378 1428.36 33.2566L1427.79 30.6126C1427.61 30.6593 1427.22 30.7434 1426.8 30.7434C1425.95 30.7434 1425.27 30.4444 1425.27 29.0803V21.6621H1428.1V19.0461Z" fill="white"/>
<path d="M1435.06 33.6864C1437.31 33.6864 1438.66 32.6306 1439.27 31.4254H1439.39V33.3967H1442.64V23.7923C1442.64 19.9991 1439.54 18.8593 1436.81 18.8593C1433.79 18.8593 1431.47 20.2046 1430.72 22.8206L1433.88 23.2691C1434.22 22.2881 1435.17 21.4472 1436.83 21.4472C1438.4 21.4472 1439.25 22.2507 1439.25 23.6615V23.7175C1439.25 24.6892 1438.24 24.7359 1435.7 25.0069C1432.92 25.3058 1430.26 26.1373 1430.26 29.37C1430.26 32.1915 1432.32 33.6864 1435.06 33.6864ZM1435.94 31.2012C1434.53 31.2012 1433.52 30.5565 1433.52 29.3139C1433.52 28.0152 1434.65 27.4734 1436.16 27.2585C1437.05 27.137 1438.82 26.9128 1439.26 26.5578V28.2488C1439.26 29.8464 1437.97 31.2012 1435.94 31.2012Z" fill="white"/>
<path d="M1449.42 14.2626H1446.04V33.3967H1449.42V14.2626Z" fill="white"/>
<path d="M1459.16 33.677C1463.36 33.677 1466.03 30.7153 1466.03 26.2775C1466.03 21.8303 1463.36 18.8593 1459.16 18.8593C1454.95 18.8593 1452.28 21.8303 1452.28 26.2775C1452.28 30.7153 1454.95 33.677 1459.16 33.677ZM1459.18 30.9676C1456.85 30.9676 1455.71 28.8935 1455.71 26.2681C1455.71 23.6428 1456.85 21.5407 1459.18 21.5407C1461.46 21.5407 1462.6 23.6428 1462.6 26.2681C1462.6 28.8935 1461.46 30.9676 1459.18 30.9676Z" fill="white"/>
<path d="M1475.15 39.0772C1479.02 39.0772 1481.88 37.302 1481.88 33.6303V19.0461H1478.55V21.4192H1478.36C1477.85 20.3821 1476.77 18.8593 1474.24 18.8593C1470.92 18.8593 1468.32 21.4566 1468.32 26.1747C1468.32 30.8555 1470.92 33.1912 1474.23 33.1912C1476.69 33.1912 1477.84 31.8738 1478.36 30.8181H1478.53V33.5369C1478.53 35.6484 1477.13 36.5172 1475.2 36.5172C1473.16 36.5172 1472.27 35.5549 1471.86 34.7141L1468.81 35.4522C1469.43 37.4609 1471.49 39.0772 1475.15 39.0772ZM1475.17 30.5378C1472.94 30.5378 1471.76 28.8 1471.76 26.156C1471.76 23.5494 1472.92 21.6341 1475.17 21.6341C1477.35 21.6341 1478.55 23.4373 1478.55 26.156C1478.55 28.8935 1477.33 30.5378 1475.17 30.5378Z" fill="white"/>
</svg>
