<?xml version="1.0" encoding="utf-8"?>
<!-- Generator: Adobe Illustrator 24.1.2, SVG Export Plug-In . SVG Version: 6.00 Build 0)  -->
<svg version="1.1" id="Layer_1" xmlns="http://www.w3.org/2000/svg" xmlns:xlink="http://www.w3.org/1999/xlink" x="0px" y="0px"
	 viewBox="0 0 478.2 332" style="enable-background:new 0 0 478.2 332;" xml:space="preserve">
<style type="text/css">
	.st0{fill-rule:evenodd;clip-rule:evenodd;fill:url(#SVGID_1_);fill-opacity:5.000000e-02;}
	.st1{fill:url(#SVGID_2_);}
</style>
<g>
	
		<linearGradient id="SVGID_1_" gradientUnits="userSpaceOnUse" x1="239.1" y1="729" x2="239.1" y2="1096.869" gradientTransform="matrix(1 0 0 1 0 -728)">
		<stop  offset="0" style="stop-color:#11D9EB"/>
		<stop  offset="1" style="stop-color:#11D9EB;stop-opacity:0.3"/>
	</linearGradient>
	<path class="st0" d="M458,1H20.7L1.5,24.7L1,24.1v283.6l0.5-0.6l19.3,23.8l-0.1,0.1H458l-0.1-0.1l19.3-23.8V24.7L458,1z"/>
	
		<linearGradient id="SVGID_2_" gradientUnits="userSpaceOnUse" x1="9.7545" y1="899.2556" x2="469.3997" y2="888.7706" gradientTransform="matrix(1 0 0 1 0 -728)">
		<stop  offset="0" style="stop-color:#E42BC8"/>
		<stop  offset="0.5293" style="stop-color:#5670FD"/>
		<stop  offset="1" style="stop-color:#1DCEF4"/>
	</linearGradient>
	<path class="st1" d="M458,1l0.8-0.6L458.5,0H458V1z M20.7,1V0h-0.5l-0.3,0.4L20.7,1z M1.5,24.7l-0.8,0.6l0.8,1l0.8-1L1.5,24.7z
		 M1,24.1l0.8-0.6L0,21.3v2.8C0,24.1,1,24.1,1,24.1z M1,307.7H0v2.8l1.8-2.2L1,307.7z M1.5,307.1l0.8-0.6l-0.8-1l-0.8,1L1.5,307.1z
		 M20.8,330.9l0.8,0.6l0.5-0.6l-0.5-0.6L20.8,330.9z M20.7,331l-0.8-0.6l-1.3,1.6h2.1C20.7,332,20.7,331,20.7,331z M458,331v1h2.1
		l-1.3-1.6L458,331z M457.9,330.9l-0.8-0.6l-0.5,0.6l0.5,0.6L457.9,330.9z M477.2,307.1l0.8,0.6l0.2-0.3V307L477.2,307.1
		L477.2,307.1z M477.2,24.7h1v-0.4L478,24L477.2,24.7z M458,0H20.7v2H458V0z M19.9,0.4L0.7,24l1.6,1.3L21.5,1.6L19.9,0.4z M2.2,24
		l-0.5-0.6l-1.6,1.3l0.5,0.6L2.2,24z M0,24.1v283.6h2V24.1H0z M1.7,308.3l0.5-0.6l-1.6-1.3L0.2,307L1.7,308.3z M0.7,307.7L20,331.5
		l1.6-1.3L2.2,306.4L0.7,307.7z M20,330.2l-0.1,0.1l1.6,1.3l0.1-0.1L20,330.2z M20.7,332H458v-2H20.7V332z M458.8,330.4l-0.1-0.1
		l-1.6,1.3l0.1,0.1L458.8,330.4z M458.7,331.5l19.3-23.8l-1.6-1.3l-19.3,23.8L458.7,331.5z M478.2,307.1V24.7h-2v282.4L478.2,307.1
		L478.2,307.1z M478,24L458.8,0.3l-1.6,1.3l19.2,23.7L478,24z"/>
</g>
</svg>
