<?xml version="1.0" encoding="utf-8"?>
<!-- Generator: Adobe Illustrator 24.1.2, SVG Export Plug-In . SVG Version: 6.00 Build 0)  -->
<svg version="1.1" id="Layer_1" xmlns="http://www.w3.org/2000/svg" xmlns:xlink="http://www.w3.org/1999/xlink" x="0px" y="0px"
	 viewBox="0 0 210 210" style="enable-background:new 0 0 210 210;" xml:space="preserve">
<style type="text/css">
	.st0{fill:#361963;}
	.st1{fill:none;stroke:url(#SVGID_1_);}
	.st2{fill-rule:evenodd;clip-rule:evenodd;fill:url(#SVGID_2_);}
	.st3{fill:url(#SVGID_3_);fill-opacity:0.3;}
</style>
<path class="st0" d="M105,10l82.5,47.5v95L105,200l-82.5-47.5v-95L105,10z"/>
<linearGradient id="SVGID_1_" gradientUnits="userSpaceOnUse" x1="253.33" y1="374.0031" x2="253.33" y2="563.9969" gradientTransform="matrix(1 0 0 1 -148.32 -364)">
	<stop  offset="0" style="stop-color:#11D9EB"/>
	<stop  offset="1" style="stop-color:#D533CE"/>
</linearGradient>
<path class="st1" d="M23,57.8l82-47.2l82,47.2v94.4l-82,47.2l-82-47.2V57.8z"/>
<linearGradient id="SVGID_2_" gradientUnits="userSpaceOnUse" x1="253.32" y1="364" x2="253.32" y2="573.96" gradientTransform="matrix(1 0 0 1 -148.32 -364)">
	<stop  offset="0" style="stop-color:#11D9EB"/>
	<stop  offset="1" style="stop-color:#D533CE"/>
</linearGradient>
<path class="st2" d="M195.2,57v99.9L105,208.8l-0.5-0.3v1.1l0.5,0.3l91.2-52.5V56.4L195.2,57z M105,1.1V0L13.8,52.5v104.8l1-0.7
	V53.1L105,1.1z"/>
<linearGradient id="SVGID_3_" gradientUnits="userSpaceOnUse" x1="229.6754" y1="416.9321" x2="278.0954" y2="521.5322" gradientTransform="matrix(1 0 0 1 -148.32 -364)">
	<stop  offset="0" style="stop-color:#11D9EB"/>
	<stop  offset="1" style="stop-color:#11D9EB;stop-opacity:0"/>
</linearGradient>
<path class="st3" d="M105,39l56.4,32.5v65L105,169l-56.4-32.5v-65L105,39z"/>
</svg>
