<svg width="65" height="68" viewBox="0 0 65 68" fill="none" xmlns="http://www.w3.org/2000/svg">
<g filter="url(#filter0_d_2_155)">
<path fill-rule="evenodd" clip-rule="evenodd" d="M25.5193 26.9125L18.9298 30.692V43.5351L23.2184 45.9849L26.9736 43.8151C27.2925 44.0251 27.7176 44.0251 28.0719 43.8485C28.6034 43.5335 28.8159 42.8684 28.4971 42.3437C28.3462 42.094 28.1039 41.9111 27.8203 41.8329C27.5367 41.7547 27.2336 41.7872 26.9736 41.9237C26.6193 42.1337 26.4067 42.5187 26.4422 42.9034L23.2184 44.7249L20.5612 43.2201L26.6193 39.7556L27.6822 40.3856L29.2765 41.2953L30.3394 41.8904L41.0384 35.8013C41.3573 36.0113 41.7825 36.0113 42.1722 35.8013C42.7036 35.5213 42.8808 34.8563 42.5619 34.3316C42.411 34.0818 42.1687 33.8989 41.8851 33.8207C41.6016 33.7425 41.2984 33.7751 41.0384 33.9115C40.6841 34.1216 40.507 34.5062 40.507 34.8913L32.2168 39.5805L30.3381 40.6656L27.9643 39.3009L23.5714 36.781V33.9475L30.1609 37.7268L30.8695 37.3421L41.6036 31.2174V30.7977L41.4265 26.5974L37.6709 24.464C37.6709 24.2543 37.6001 24.0793 37.5292 23.9043C37.4206 23.7139 37.2573 23.5597 37.06 23.461C36.8626 23.3624 36.6401 23.3238 36.4205 23.3501C36.201 23.3764 35.9942 23.4664 35.8265 23.6088C35.6587 23.7512 35.5374 23.9395 35.478 24.15C35.4186 24.3605 35.4237 24.5836 35.4926 24.7912C35.5616 24.9988 35.6913 25.1816 35.8654 25.3163C36.0395 25.4511 36.2501 25.5319 36.4707 25.5484C36.6912 25.5649 36.9117 25.5164 37.1044 25.409V25.3757L40.3636 27.2305L40.4699 30.17L34.27 26.6364V22.5382L23.6065 16.4498C23.6065 16.2398 23.5356 16.0648 23.4293 15.8901C23.1459 15.3651 22.4727 15.1901 21.9413 15.4701C21.6829 15.614 21.493 15.8534 21.4133 16.1356C21.3336 16.4179 21.3706 16.7198 21.5163 16.975C21.6619 17.2303 21.9042 17.4179 22.1899 17.4967C22.4756 17.5754 22.7812 17.5388 23.0396 17.3949V17.3616L29.7 21.1758L33.2062 23.1679V30.692L30.9032 32.0218V24.4627L27.3961 22.4682L20.7357 18.6886L19.6373 18.0586L15.3521 20.5084V24.7777L15.3183 24.811C14.8223 25.091 14.6097 25.7561 14.9286 26.2808C15.0795 26.5305 15.3218 26.7134 15.6054 26.7916C15.8889 26.8698 16.1921 26.8373 16.4521 26.7008C16.5783 26.6279 16.6887 26.531 16.7767 26.4156C16.8648 26.3003 16.9288 26.1688 16.9651 26.0288C17.0013 25.8889 17.0091 25.7432 16.9879 25.6002C16.9668 25.4573 16.9171 25.3199 16.8418 25.196C16.7377 25.0232 16.5916 24.8788 16.4166 24.776V21.1381L18.9318 19.7047V26.5988L18.1523 27.0538L16.4166 28.0335L15.3537 28.6636V40.842H15.32C14.824 41.1566 14.6114 41.8217 14.9303 42.3467C15.0041 42.4715 15.1022 42.5805 15.219 42.6675C15.3358 42.7545 15.469 42.8177 15.6107 42.8535C15.7524 42.8893 15.8999 42.8969 16.0446 42.876C16.1893 42.855 16.3284 42.8059 16.4538 42.7314C16.9849 42.4517 17.1623 41.7867 16.8435 41.2617C16.7394 41.0889 16.5932 40.9447 16.4183 40.842V29.2573L23.0433 25.5127L25.5193 26.9125ZM19.9926 31.3217L26.0507 27.8572V30.6907L22.4741 32.7201V37.4111L25.5207 39.1259L19.994 42.2754L19.9926 31.3217ZM29.8063 32.1968L27.1491 30.692V26.6324L23.0396 24.253L19.9926 26.0027V19.4934L29.8063 25.0937V32.1968ZM24.1021 33.0365L26.6176 31.6031L30.1606 33.6679L34.27 31.3231V27.8572L39.9725 31.0767L30.1606 36.501L24.1021 33.0365Z" fill="white"/>
</g>
<defs>
<filter id="filter0_d_2_155" x="0.355337" y="0.915396" width="63.9987" height="66.7029" filterUnits="userSpaceOnUse" color-interpolation-filters="sRGB">
<feFlood flood-opacity="0" result="BackgroundImageFix"/>
<feColorMatrix in="SourceAlpha" type="matrix" values="0 0 0 0 0 0 0 0 0 0 0 0 0 0 0 0 0 0 127 0" result="hardAlpha"/>
<feOffset dx="3.60556" dy="3.60556"/>
<feGaussianBlur stdDeviation="9.01391"/>
<feComposite in2="hardAlpha" operator="out"/>
<feColorMatrix type="matrix" values="0 0 0 0 1 0 0 0 0 1 0 0 0 0 1 0 0 0 0.56 0"/>
<feBlend mode="normal" in2="BackgroundImageFix" result="effect1_dropShadow_2_155"/>
<feBlend mode="normal" in="SourceGraphic" in2="effect1_dropShadow_2_155" result="shape"/>
</filter>
</defs>
</svg>
